# File created by Blade
# Date/Time:  Thu Sep 25 21:01:51 2014
# Frame Rate: 120.000 fps
#------------------------------------------------------
:FULLY-SPECIFIED
:DEGREES
1334
root 1.330144 2.966487 -8.038368 -24.718020 -5.795398 -18.342536
Spine 24.622846 6.643517 0.375641
Head -0.039010 -16.452054 20.349477
LeftShoulder -4.140371 22.546128 28.963968
LeftArm 16.259756 44.948718 -62.565281
LeftForeArm 38.049061 0.000000 57.908284
LeftHand -41.266401 -0.000000 69.284329
LeftHandThumb1 -26.253704 0.000000 33.147579
RightShoulder -16.172996 5.895362 -16.122719
RightArm -34.882708 -49.141556 115.697402
RightForeArm -27.245398 -0.000000 39.574648
RightHand -4.305328 0.000000 10.100925
RightHandThumb1 -24.326973 -0.000000 -32.862282
LeftUpLeg -108.034191 14.068964 -28.844827
LeftLeg 99.383755 -0.000000 -0.000000
LeftFoot 10.241518 4.663889 -8.140987
LeftToeBase -10.755789 -0.000000 0.000000
RightUpLeg -71.475863 -5.902582 2.425580
RightLeg 22.663382 -0.000000 -0.000000
RightFoot 17.945887 -2.516122 7.458771
RightToeBase -2.605431 -0.000000 0.000000
1335
root 1.331075 2.960674 -8.045867 -24.812770 -5.881191 -18.319885
Spine 24.659673 6.654730 0.364608
Head 0.176884 -16.455010 20.302118
LeftShoulder -4.149840 22.570247 28.965610
LeftArm 16.134955 44.765037 -62.668133
LeftForeArm 38.195042 0.000000 57.960297
LeftHand -40.594559 -0.000000 70.121282
LeftHandThumb1 -26.253704 0.000000 33.147579
RightShoulder -16.192947 5.852922 -16.143517
RightArm -34.762587 -49.117213 115.565901
RightForeArm -27.522728 -0.000000 39.609761
RightHand -4.087273 0.000000 10.168881
RightHandThumb1 -24.326973 -0.000000 -32.862282
LeftUpLeg -107.996914 14.238284 -28.865732
LeftLeg 99.338723 -0.000000 -0.000000
LeftFoot 10.269323 4.542495 -8.162429
LeftToeBase -10.771699 -0.000000 0.000000
RightUpLeg -71.840932 -6.022013 2.455958
RightLeg 23.729278 -0.000000 -0.000000
RightFoot 17.730983 -3.099901 7.803907
RightToeBase -2.901964 -0.000000 0.000000
1336
root 1.335195 2.956338 -8.050209 -24.917724 -5.970340 -18.302419
Spine 24.670591 6.657586 0.363491
Head 0.451957 -16.448791 20.265342
LeftShoulder -4.130430 22.612436 28.994832
LeftArm 16.065746 44.738097 -62.751420
LeftForeArm 38.186466 -0.000000 58.061089
LeftHand -40.677953 -0.000000 70.033507
LeftHandThumb1 -26.253704 0.000000 33.147579
RightShoulder -16.172119 5.890937 -16.166587
RightArm -34.811498 -49.123879 115.550809
RightForeArm -27.601970 -0.000000 39.659739
RightHand -4.033462 -0.000000 10.276028
RightHandThumb1 -24.326973 -0.000000 -32.862282
LeftUpLeg -107.946625 14.386623 -28.883069
LeftLeg 99.312642 -0.000000 -0.000000
LeftFoot 10.238376 4.515057 -8.171165
LeftToeBase -10.695679 -0.000000 0.000000
RightUpLeg -72.236722 -6.200541 2.542079
RightLeg 24.940444 -0.000000 -0.000000
RightFoot 17.586405 -3.472131 7.916361
RightToeBase -2.562433 -0.000000 0.000000
1337
root 1.339968 2.950793 -8.053627 -25.052761 -6.054270 -18.248053
Spine 24.707082 6.655093 0.325111
Head 0.735366 -16.393515 20.234950
LeftShoulder -4.120215 22.560037 29.031711
LeftArm 15.859260 44.726817 -62.933274
LeftForeArm 38.212494 -0.000000 58.126377
LeftHand -40.568454 -0.000000 69.978767
LeftHandThumb1 -26.253704 0.000000 33.147579
RightShoulder -16.107460 5.936050 -16.223639
RightArm -34.821946 -49.087704 115.569060
RightForeArm -27.632242 -0.000000 39.630323
RightHand -4.036022 -0.000000 10.456486
RightHandThumb1 -24.326973 -0.000000 -32.862282
LeftUpLeg -107.879402 14.549637 -28.939004
LeftLeg 99.290855 -0.000000 -0.000000
LeftFoot 10.209795 4.542263 -8.193653
LeftToeBase -10.699747 -0.000000 0.000000
RightUpLeg -72.633402 -6.352526 2.592750
RightLeg 26.231153 -0.000000 -0.000000
RightFoot 17.427270 -3.926176 8.041870
RightToeBase -2.647202 -0.000000 0.000000
1338
root 1.342214 2.945316 -8.058061 -25.154449 -6.181065 -18.197076
Spine 24.704824 6.690538 0.298329
Head 0.997205 -16.371912 20.233335
LeftShoulder -4.146529 22.718161 29.013169
LeftArm 15.897379 44.619549 -62.906755
LeftForeArm 38.230828 -0.000000 58.245364
LeftHand -40.595059 0.000000 69.878641
LeftHandThumb1 -26.253704 0.000000 33.147579
RightShoulder -16.072081 5.864257 -16.238033
RightArm -34.695693 -49.137560 115.466593
RightForeArm -27.641419 -0.000000 39.647191
RightHand -3.933219 -0.000000 10.557386
RightHandThumb1 -24.326973 -0.000000 -32.862282
LeftUpLeg -107.864929 14.735488 -28.930341
LeftLeg 99.247374 -0.000000 -0.000000
LeftFoot 10.262922 4.499751 -8.255273
LeftToeBase -11.110587 -0.000000 0.000000
RightUpLeg -73.077485 -6.455867 2.644805
RightLeg 27.610303 -0.000000 -0.000000
RightFoot 17.347061 -4.348953 8.183498
RightToeBase -2.326290 -0.000000 0.000000
1339
root 1.344659 2.940348 -8.061521 -25.272848 -6.293020 -18.134829
Spine 24.710035 6.704662 0.261013
Head 1.320807 -16.341283 20.174826
LeftShoulder -4.154651 22.776661 29.011539
LeftArm 15.823625 44.576863 -62.960405
LeftForeArm 38.209896 -0.000000 58.333590
LeftHand -40.584859 0.000000 69.763880
LeftHandThumb1 -26.253704 0.000000 33.147579
RightShoulder -16.015565 5.884583 -16.316290
RightArm -34.712362 -49.165677 115.526278
RightForeArm -27.728511 -0.000000 39.638493
RightHand -3.883376 0.000000 10.592415
RightHandThumb1 -24.326973 -0.000000 -32.862282
LeftUpLeg -107.837901 14.937101 -28.899221
LeftLeg 99.220383 -0.000000 -0.000000
LeftFoot 10.430531 4.334856 -8.431546
LeftToeBase -11.370032 -0.000000 0.000000
RightUpLeg -73.511854 -6.557402 2.646062
RightLeg 29.046092 -0.000000 -0.000000
RightFoot 17.378273 -4.987528 8.627912
RightToeBase -2.886784 -0.000000 0.000000
